<svg width="1149" height="1132" viewBox="0 0 1149 1132" fill="none" xmlns="http://www.w3.org/2000/svg">
<path fill-rule="evenodd" clip-rule="evenodd" d="M71.5783 310.914C62.9235 310.914 55.9071 317.93 55.9071 326.586C55.9071 335.242 62.9235 342.259 71.5783 342.259C80.2331 342.259 87.2495 335.242 87.2495 326.586C87.2495 317.93 80.2331 310.914 71.5783 310.914ZM50.9071 326.586C50.9071 315.169 60.1618 305.914 71.5783 305.914C82.9948 305.914 92.2495 315.169 92.2495 326.586C92.2495 338.003 82.9948 347.259 71.5783 347.259C60.1618 347.259 50.9071 338.003 50.9071 326.586Z" fill="white"/>
<path fill-rule="evenodd" clip-rule="evenodd" d="M1097.9 50.8831C1099.07 52.0572 1099.07 53.9567 1097.9 55.1258L564.117 586.669C562.943 587.838 561.043 587.834 559.874 586.66C558.705 585.486 558.709 583.586 559.883 582.417L1093.66 50.8742C1094.84 49.7051 1096.74 49.7091 1097.9 50.8831Z" fill="white"/>
<path d="M605.296 123.148C606.495 123.149 607.691 123.245 608.875 123.433L655.986 130.896C658.935 131.355 661.764 132.394 664.309 133.954C666.853 135.514 669.063 137.563 670.81 139.982C672.57 142.392 673.835 145.127 674.532 148.028C675.229 150.93 675.343 153.941 674.868 156.888L662.919 232.337C684.055 238.207 704.634 245.925 724.419 255.4C726.482 256.39 728.536 257.4 730.58 258.427L725.578 263.536C724.216 262.862 722.85 262.195 721.479 261.538C704.358 253.34 686.628 246.48 668.447 241.019L659.566 297.056C658.46 304.041 654.884 310.398 649.488 314.97C644.163 319.482 637.411 321.962 630.431 321.971C628.874 321.97 627.32 321.846 625.783 321.602L578.673 314.141C570.942 312.907 564.015 308.656 559.414 302.322C554.813 295.988 552.912 288.087 554.128 280.353L562.812 225.502H562.2C539.188 225.498 516.224 227.627 493.604 231.862C473.516 235.643 453.778 241.093 434.596 248.156C435.626 254.179 436.142 260.28 436.138 266.391C436.166 280.67 433.311 294.81 427.745 307.96C422.388 320.645 414.618 332.17 404.869 341.894C395.148 351.64 383.628 359.405 370.948 364.762C357.799 370.328 343.661 373.182 329.382 373.153C311.219 373.171 293.352 368.543 277.482 359.708C262.756 377.541 249.731 396.713 238.576 416.974C227.997 436.211 219.16 456.357 212.173 477.17L261.797 472.826C262.658 472.751 263.532 472.713 264.393 472.713C271.749 472.714 278.838 475.47 284.265 480.436C289.746 485.425 293.146 492.296 293.784 499.681L306.05 639.98C306.398 643.844 305.978 647.739 304.812 651.439C303.645 655.139 301.756 658.571 299.254 661.536C296.769 664.514 293.717 666.969 290.276 668.761C286.836 670.552 283.074 671.644 279.209 671.972L202.704 678.663C208.595 703.947 217.153 728.535 228.232 752.014C239.431 775.717 253.119 798.162 269.064 818.97L304.651 801.606C308.68 799.63 313.11 798.607 317.598 798.615C321.521 798.611 325.406 799.391 329.023 800.911C332.724 802.458 336.067 804.748 338.849 807.638L394.88 865.693C399.219 870.171 402.02 875.915 402.875 882.092C403.755 888.265 402.647 894.559 399.709 900.059L388.807 920.574C413.936 933.971 440.539 944.398 468.078 951.644C498.501 959.623 529.817 963.694 561.269 963.757L624.144 888.818C626.981 885.413 630.553 882.694 634.592 880.867C638.395 879.147 642.522 878.262 646.696 878.273C652.59 878.259 658.355 879.998 663.257 883.27C668.462 886.753 672.412 891.817 674.523 897.714L690.236 940.95C715.188 931.714 739.065 919.801 761.449 905.419C783.5 891.239 803.988 874.763 822.568 856.266C809.258 842.881 801.801 824.761 801.833 805.884C801.816 796.315 803.729 786.842 807.459 778.03C811.05 769.528 816.257 761.804 822.791 755.287C829.308 748.753 837.031 743.545 845.532 739.954C854.342 736.224 863.815 734.312 873.382 734.33C883.063 734.33 892.643 736.29 901.547 740.091C909.73 721.015 916.281 701.281 921.131 681.099C925.706 661.992 928.752 642.55 930.237 622.96C927.579 623.727 924.827 624.118 922.061 624.119C918.616 624.121 915.198 623.518 911.962 622.338L817.083 587.81C812.216 586.031 807.901 583.005 804.569 579.035C801.238 575.065 799.007 570.29 798.099 565.187L780.568 465.739C779.677 460.635 780.141 455.386 781.913 450.516C783.685 445.647 786.704 441.328 790.667 437.99L861.489 378.558C850.31 363.102 837.959 348.528 824.547 334.966C821.844 332.236 819.1 329.55 816.315 326.907L821.102 322.068C823.898 324.725 826.655 327.424 829.371 330.166C844.521 345.479 858.338 362.056 870.672 379.718L795.034 443.194C791.984 445.762 789.662 449.086 788.299 452.833C786.936 456.58 786.58 460.619 787.267 464.547L804.797 563.995C805.495 567.92 807.212 571.593 809.774 574.646C812.337 577.7 815.656 580.028 819.399 581.397L914.28 615.925C916.77 616.83 919.4 617.292 922.049 617.288C927.389 617.285 932.557 615.403 936.649 611.973L937.758 611.041C936.723 635.184 933.369 659.172 927.743 682.673C922.247 705.558 914.605 727.873 904.916 749.322C895.273 743.954 884.418 741.139 873.382 741.144C864.726 741.128 856.156 742.858 848.186 746.232C840.494 749.482 833.505 754.195 827.608 760.107C821.696 766.004 816.985 772.993 813.735 780.685C810.362 788.657 808.631 797.227 808.647 805.884C808.633 815.477 810.758 824.954 814.867 833.623C818.976 842.29 824.964 849.933 832.397 855.995C847.373 840.506 861.001 823.768 873.132 805.963C885.338 788.033 895.973 769.083 904.916 749.322C914.822 754.864 923.106 762.901 928.945 772.635C934.957 782.682 938.127 794.175 938.117 805.884C938.134 814.54 936.403 823.11 933.029 831.082C929.78 838.775 925.068 845.763 919.155 851.66C913.259 857.573 906.27 862.284 898.578 865.534C890.607 868.908 882.037 870.639 873.382 870.623C865.833 870.633 858.34 869.318 851.245 866.738C844.401 864.25 838.028 860.62 832.396 856.004C812.169 876.912 789.597 895.416 765.127 911.147C740.4 927.036 713.891 939.961 686.146 949.657L668.111 900.039C666.493 895.506 663.461 891.613 659.464 888.933C655.683 886.407 651.236 885.063 646.689 885.072C643.484 885.063 640.314 885.742 637.393 887.062C634.287 888.474 631.541 890.57 629.361 893.195L564.451 970.571C605.892 970.377 647.014 963.315 686.146 949.673L710.248 1015.98C711.519 1019.4 711.935 1023.08 711.46 1026.7C710.985 1030.32 709.633 1033.77 707.522 1036.74C705.444 1039.73 702.677 1042.17 699.457 1043.86C696.237 1045.55 692.657 1046.44 689.02 1046.46C687.66 1046.46 686.303 1046.34 684.965 1046.1L563.488 1024.73C559.561 1024.04 555.884 1022.33 552.828 1019.77C549.772 1017.2 547.445 1013.88 546.08 1010.14C544.715 1006.39 544.362 1002.35 545.054 998.419C545.746 994.491 547.46 990.815 550.023 987.76L564.451 970.571H562.2C529.853 970.588 497.637 966.442 466.348 958.236C436.095 950.272 406.96 938.543 379.628 923.323L393.694 896.852C395.954 892.621 396.807 887.779 396.129 883.03C395.471 878.279 393.317 873.86 389.979 870.416L333.942 812.369C331.803 810.147 329.232 808.386 326.386 807.196C323.602 806.027 320.613 805.426 317.594 805.43C314.144 805.424 310.737 806.211 307.64 807.73L267.085 827.516C249.376 805.104 234.273 780.75 222.069 754.924C209.664 728.635 200.368 700.988 194.37 672.544L278.623 665.173C281.596 664.921 284.491 664.081 287.138 662.703C289.784 661.325 292.132 659.436 294.044 657.144C295.968 654.863 297.42 652.223 298.316 649.377C299.213 646.53 299.536 643.535 299.268 640.562L287.002 500.263C286.512 494.583 283.898 489.296 279.682 485.459C275.508 481.641 270.056 479.524 264.399 479.523C263.736 479.523 263.062 479.552 262.396 479.611L202.567 484.836C210.102 460.142 220.17 436.293 232.611 413.671C244.915 391.327 259.45 370.287 275.995 350.874C261.983 341.985 250.384 329.769 242.232 315.314C238.115 308.007 234.939 300.209 232.779 292.104C230.558 283.714 229.436 275.07 229.44 266.391C229.415 253.026 232.086 239.793 237.295 227.485C242.312 215.609 249.586 204.82 258.714 195.716C267.817 186.587 278.606 179.312 290.481 174.295C302.788 169.087 316.019 166.416 329.382 166.442C340.899 166.427 352.333 168.408 363.174 172.298C373.626 176.054 383.377 181.533 392.021 188.508C400.614 195.425 408.006 203.715 413.898 213.041C419.894 222.506 424.242 232.918 426.759 243.836C397.557 255.128 369.883 270.03 344.382 288.194C319.096 306.207 296.123 327.264 275.983 350.891C291.957 361.002 310.478 366.36 329.382 366.339C342.746 366.365 355.977 363.692 368.284 358.483C380.16 353.466 390.948 346.191 400.052 337.062C409.18 327.958 416.455 317.169 421.472 305.293C426.679 292.986 429.349 279.754 429.323 266.391C429.326 258.796 428.468 251.225 426.766 243.824C448.009 235.623 469.956 229.377 492.334 225.166C515.372 220.852 538.761 218.683 562.2 218.687C565.035 218.687 567.919 218.719 570.774 218.783L560.855 281.416C559.92 287.365 561.382 293.444 564.922 298.316C568.461 303.189 573.789 306.458 579.735 307.407L626.847 314.87C628.031 315.058 629.229 315.152 630.429 315.153C635.797 315.145 640.989 313.237 645.084 309.766C649.233 306.249 651.983 301.36 652.834 295.988L662.914 232.335C632.88 224.021 601.93 219.469 570.774 218.785L582.886 142.315C583.737 136.942 586.488 132.052 590.639 128.536C594.734 125.064 599.927 123.156 605.296 123.148ZM682.019 958.253C645.091 970.402 606.525 976.842 567.654 977.348L555.243 992.151C553.449 994.29 552.248 996.863 551.764 999.612C551.279 1002.36 551.527 1005.19 552.482 1007.81C553.438 1010.44 555.068 1012.76 557.207 1014.56C559.346 1016.35 561.92 1017.55 564.669 1018.03L686.146 1039.4C687.094 1039.57 688.056 1039.65 689.02 1039.65L689.493 1039.63C691.872 1039.55 694.204 1038.93 696.313 1037.81C698.564 1036.63 700.496 1034.92 701.946 1032.83C703.42 1030.74 704.362 1028.33 704.692 1025.8C705.023 1023.27 704.73 1020.7 703.84 1018.31L682.019 958.253ZM267.083 827.518C282.447 846.956 299.681 864.84 318.536 880.913C337.455 897.025 357.919 911.231 379.628 923.323L355.83 968.115C353.9 971.758 351.014 974.807 347.48 976.932C343.947 979.056 339.901 980.177 335.778 980.173C334.453 980.172 333.129 980.056 331.823 979.825L252.402 965.801C247.676 964.978 243.335 962.671 240.009 959.214C236.67 955.77 234.514 951.351 233.855 946.6L222.626 866.675C221.949 861.925 222.803 857.082 225.063 852.85C227.307 848.609 230.844 845.192 235.16 843.097L267.083 827.518ZM238.145 849.221C235.123 850.688 232.647 853.079 231.076 856.049C229.494 859.011 228.896 862.401 229.37 865.725L240.604 945.652C241.067 948.981 242.579 952.075 244.92 954.486C247.245 956.905 250.28 958.52 253.585 959.098L333.017 973.115C333.931 973.277 334.858 973.358 335.787 973.358L336.319 973.35C339.019 973.262 341.655 972.486 343.976 971.092C346.451 969.604 348.473 967.469 349.824 964.917L370.494 925.985C350.545 914.408 331.677 901.059 314.118 886.101C296.32 870.93 279.937 854.17 265.174 836.031L238.145 849.221ZM907.801 759.29C899.419 776.837 889.714 793.722 878.771 809.798C867.902 825.756 855.851 840.877 842.718 855.031C846.144 857.176 849.788 858.953 853.587 860.335C859.932 862.641 866.631 863.817 873.382 863.808C881.125 863.826 888.793 862.281 895.926 859.266C902.809 856.357 909.063 852.14 914.34 846.849C919.633 841.571 923.851 835.315 926.76 828.429C929.775 821.296 931.321 813.628 931.303 805.884C931.311 795.412 928.476 785.133 923.101 776.146C919.159 769.576 913.959 763.848 907.801 759.29ZM267.087 827.517L267.083 827.518L267.082 827.517L267.085 827.516L267.087 827.517ZM202.572 484.848C191.745 520.435 186.256 557.432 186.284 594.63C186.279 620.811 188.988 646.922 194.37 672.544L138.332 677.445C137.676 677.513 136.994 677.541 136.324 677.541C130.668 677.542 125.216 675.425 121.042 671.607C116.826 667.77 114.213 662.483 113.724 656.804L101.458 516.504C101.191 513.531 101.517 510.534 102.416 507.687C103.315 504.841 104.77 502.202 106.696 499.922C108.606 497.63 110.952 495.74 113.598 494.361C116.243 492.983 119.135 492.143 122.107 491.89L202.572 484.848ZM122.685 498.685C120.604 498.863 118.58 499.452 116.729 500.418C114.878 501.383 113.237 502.706 111.9 504.31C110.552 505.905 109.534 507.752 108.904 509.743C108.275 511.734 108.046 513.831 108.231 515.911L120.497 656.214C120.839 660.189 122.669 663.889 125.619 666.574C128.542 669.249 132.362 670.73 136.324 670.726C136.792 670.726 137.267 670.706 137.737 670.665L186.193 666.427C181.717 642.757 179.466 618.719 179.47 594.63C179.446 560.127 184.079 525.777 193.243 492.514L122.685 498.685ZM886.997 372.978C889.645 372.975 892.274 373.436 894.763 374.341L989.644 408.869C993.387 410.238 996.706 412.566 999.268 415.62C1001.83 418.674 1003.55 422.347 1004.24 426.271L1021.77 525.722C1022.46 529.649 1022.11 533.689 1020.74 537.436C1019.38 541.183 1017.06 544.507 1014.01 547.074L937.77 611.053L937.765 611.055C937.992 605.603 938.117 600.088 938.117 594.632C938.154 555.75 932.157 517.097 920.341 480.055C908.911 444.312 892.171 410.492 870.682 379.729L872.392 378.294C876.485 374.863 881.656 372.981 886.997 372.978ZM886.999 379.8C884.6 379.801 882.233 380.345 880.073 381.39C900.141 411.221 915.883 443.744 926.832 477.99C938.861 515.7 944.967 555.048 944.931 594.63V596.149L1009.63 541.859C1011.76 540.063 1013.39 537.737 1014.34 535.115C1015.3 532.493 1015.55 529.667 1015.07 526.919L997.536 427.468C997.047 424.72 995.846 422.149 994.053 420.012C992.259 417.874 989.936 416.245 987.315 415.286L892.437 380.758C890.694 380.123 888.854 379.799 886.999 379.8ZM329.382 173.257C316.93 173.232 304.602 175.72 293.135 180.573C282.068 185.249 272.015 192.028 263.532 200.535C255.026 209.019 248.246 219.073 243.57 230.141C238.718 241.608 236.23 253.938 236.255 266.391C236.25 274.48 237.296 282.536 239.366 290.355C241.374 297.909 244.33 305.178 248.163 311.989C254.791 323.743 263.876 333.929 274.798 341.853L276.635 339.781C295.71 318.42 317.11 299.252 340.439 282.634C364.742 265.324 390.987 250.919 418.639 239.713C416.215 231.588 412.686 223.835 408.149 216.673C402.656 207.984 395.766 200.261 387.757 193.816C379.7 187.315 370.613 182.208 360.87 178.708C350.768 175.085 340.114 173.241 329.382 173.257ZM605.296 129.959C601.54 129.967 597.906 131.303 595.042 133.733C592.138 136.195 590.214 139.617 589.618 143.377L578.716 212.218C605.265 213.342 631.626 217.224 657.372 223.803L668.139 155.817C668.471 153.755 668.391 151.647 667.903 149.616C667.416 147.585 666.529 145.67 665.297 143.983C664.074 142.289 662.527 140.854 660.746 139.763C658.965 138.671 656.985 137.944 654.921 137.623L607.81 130.158C606.978 130.026 606.138 129.96 605.296 129.959Z" fill="white"/>
<path d="M773.712 316.831L765.349 325.049L738.718 297.948L747.452 289.365C750.08 286.782 752.863 285.114 755.799 284.361C758.727 283.599 761.682 283.739 764.664 284.779C767.637 285.811 770.502 287.73 773.259 290.535C776.033 293.358 777.918 296.283 778.915 299.309C779.904 302.326 779.974 305.327 779.125 308.311C778.269 311.286 776.464 314.126 773.712 316.831ZM765.77 318.913L770.639 314.128C772.88 311.925 774.312 309.668 774.936 307.356C775.559 305.044 775.448 302.734 774.603 300.426C773.757 298.118 772.251 295.862 770.083 293.656C767.933 291.468 765.725 289.936 763.459 289.059C761.184 288.173 758.921 288.005 756.668 288.554C754.407 289.094 752.218 290.404 750.101 292.485L744.861 297.634L765.77 318.913Z" fill="white"/>
<path d="M792.131 298.729L765.5 271.628L781.855 255.555L784.716 258.466L771.643 271.314L780.641 280.471L792.867 268.456L795.728 271.367L783.502 283.383L792.552 292.593L805.837 279.537L808.698 282.448L792.131 298.729Z" fill="white"/>
<path d="M809.248 241.953C807.771 240.768 806.104 240.36 804.247 240.728C802.39 241.097 800.641 242.087 799 243.7C797.8 244.879 796.941 246.105 796.423 247.377C795.913 248.641 795.741 249.86 795.905 251.033C796.079 252.198 796.591 253.212 797.44 254.077C798.151 254.8 798.934 255.253 799.79 255.436C800.645 255.601 801.516 255.586 802.401 255.393C803.277 255.191 804.123 254.905 804.94 254.536C805.748 254.158 806.468 253.788 807.101 253.427L810.582 251.463C811.469 250.955 812.506 250.439 813.691 249.916C814.885 249.384 816.157 249.01 817.505 248.794C818.854 248.561 820.218 248.626 821.597 248.988C822.975 249.349 824.289 250.166 825.537 251.436C826.976 252.9 827.893 254.601 828.287 256.537C828.69 258.465 828.502 260.497 827.722 262.633C826.951 264.76 825.525 266.847 823.443 268.893C821.502 270.8 819.514 272.139 817.478 272.908C815.452 273.669 813.482 273.888 811.569 273.565C809.666 273.233 807.933 272.379 806.371 271L809.758 267.671C810.852 268.608 812.028 269.117 813.287 269.198C814.545 269.261 815.798 269.001 817.045 268.417C818.293 267.816 819.454 266.986 820.53 265.929C821.783 264.698 822.708 263.389 823.307 262.004C823.896 260.61 824.122 259.26 823.985 257.956C823.839 256.643 823.28 255.492 822.309 254.504C821.425 253.604 820.454 253.119 819.397 253.049C818.339 252.978 817.227 253.17 816.059 253.623C814.892 254.076 813.702 254.639 812.49 255.31L808.219 257.635C805.504 259.107 802.974 259.885 800.629 259.969C798.284 260.054 796.215 259.183 794.42 257.357C792.929 255.839 792.039 254.113 791.75 252.178C791.461 250.225 791.706 248.25 792.484 246.254C793.262 244.24 794.516 242.384 796.245 240.685C797.992 238.968 799.852 237.755 801.826 237.047C803.791 236.329 805.7 236.118 807.551 236.415C809.412 236.702 811.036 237.508 812.423 238.832L809.248 241.953Z" fill="white"/>
<path d="M814.813 223.165L841.444 250.266L838.162 253.491L811.532 226.39L814.813 223.165Z" fill="white"/>
<path d="M848.24 206.962C847.073 206.357 845.905 205.936 844.735 205.698C843.566 205.443 842.407 205.385 841.26 205.523C840.122 205.654 839.013 205.989 837.933 206.531C836.852 207.072 835.822 207.824 834.843 208.787C833.238 210.365 832.185 212.214 831.686 214.335C831.186 216.456 831.341 218.705 832.151 221.083C832.961 223.46 834.519 225.822 836.825 228.169C839.131 230.515 841.47 232.11 843.841 232.953C846.213 233.796 848.477 233.973 850.632 233.484C852.788 232.996 854.704 231.928 856.38 230.281C857.933 228.755 858.975 227.08 859.507 225.257C860.039 223.416 860.038 221.562 859.503 219.694C858.968 217.809 857.886 216.037 856.256 214.379L857.47 213.602L849.319 221.613L846.458 218.702L856.779 208.558L859.64 211.47C861.833 213.702 863.264 216.111 863.933 218.697C864.61 221.274 864.561 223.836 863.787 226.383C863.013 228.913 861.549 231.236 859.397 233.351C856.997 235.709 854.334 237.216 851.407 237.873C848.489 238.521 845.5 238.303 842.44 237.218C839.388 236.124 836.458 234.148 833.65 231.289C831.543 229.146 829.936 226.936 828.827 224.661C827.719 222.369 827.101 220.098 826.971 217.849C826.842 215.6 827.185 213.443 827.999 211.377C828.813 209.311 830.088 207.425 831.826 205.717C833.255 204.312 834.8 203.219 836.46 202.438C838.12 201.639 839.82 201.155 841.562 200.987C843.304 200.801 845.035 200.93 846.754 201.373C848.464 201.808 850.089 202.561 851.627 203.633L848.24 206.962Z" fill="white"/>
<path d="M870.574 168.366L897.204 195.467L894.028 198.588L858.352 191.822L858.088 192.082L878.997 213.36L875.715 216.586L849.085 189.484L852.26 186.363L888.041 193.13L888.306 192.87L867.345 171.539L870.574 168.366Z" fill="white"/>
<path d="M638.524 396.719L644.253 391.088L661.548 408.688C663.489 410.664 664.717 412.857 665.229 415.267C665.75 417.668 665.576 420.111 664.706 422.596C663.827 425.073 662.268 427.412 660.027 429.614C657.777 431.825 655.407 433.348 652.916 434.183C650.416 435.01 647.971 435.141 645.579 434.578C643.188 434.015 641.021 432.745 639.079 430.769L621.785 413.169L627.515 407.539L644.328 424.649C645.342 425.681 646.469 426.377 647.707 426.738C648.955 427.09 650.219 427.088 651.499 426.732C652.779 426.376 653.97 425.656 655.073 424.572C656.184 423.48 656.925 422.301 657.294 421.036C657.673 419.762 657.693 418.503 657.354 417.258C657.023 416.005 656.351 414.862 655.337 413.829L638.524 396.719Z" fill="white"/>
<path d="M654.697 380.825L681.327 407.926L675.598 413.557L648.967 386.456L654.697 380.825Z" fill="white"/>
<path d="M669.86 363.426L693.01 404.456L688.154 409.229L665.004 368.199L669.86 363.426Z" fill="white"/>
<path d="M690.668 345.473L696.398 339.843L713.692 357.442C715.634 359.419 716.861 361.612 717.374 364.021C717.895 366.422 717.721 368.865 716.851 371.351C715.972 373.827 714.412 376.166 712.172 378.368C709.922 380.579 707.552 382.102 705.061 382.937C702.561 383.764 700.115 383.895 697.724 383.332C695.332 382.769 693.166 381.5 691.224 379.523L673.93 361.923L679.659 356.293L696.472 373.403C697.487 374.435 698.613 375.132 699.852 375.492C701.1 375.844 702.363 375.842 703.643 375.486C704.923 375.13 706.115 374.41 707.217 373.326C708.329 372.234 709.069 371.055 709.439 369.79C709.817 368.517 709.837 367.257 709.498 366.012C709.168 364.759 708.496 363.616 707.482 362.584L690.668 345.473Z" fill="white"/>
<path d="M706.484 329.93L721.025 333.796L721.237 333.588L717.652 318.955L724.123 312.596L729.168 334.274L750.938 339.515L744.349 345.991L729.702 342.203L729.49 342.411L733.022 357.122L726.459 363.573L721.626 341.686L699.987 336.315L706.484 329.93Z" fill="white"/>
<path d="M331.653 316.364C357.997 316.364 379.353 295.007 379.353 268.662C379.353 242.316 357.997 220.959 331.653 220.959C305.31 220.959 283.954 242.316 283.954 268.662C283.954 295.007 305.31 316.364 331.653 316.364Z" fill="white"/>
<path fill-rule="evenodd" clip-rule="evenodd" d="M157.891 1021.91C142.964 1021.91 130.863 1034.01 130.863 1048.94C130.863 1063.87 142.964 1075.97 157.891 1075.97C172.819 1075.97 184.92 1063.87 184.92 1048.94C184.92 1034.01 172.819 1021.91 157.891 1021.91ZM125.863 1048.94C125.863 1031.25 140.203 1016.91 157.891 1016.91C175.58 1016.91 189.92 1031.25 189.92 1048.94C189.92 1066.63 175.58 1080.97 157.891 1080.97C140.203 1080.97 125.863 1066.63 125.863 1048.94Z" fill="white"/>
<path fill-rule="evenodd" clip-rule="evenodd" d="M219.835 992.638C220.82 993.605 220.835 995.188 219.868 996.174L159.676 1057.51C158.709 1058.49 157.126 1058.51 156.14 1057.54C155.155 1056.57 155.14 1054.99 156.107 1054L216.299 992.671C217.266 991.686 218.849 991.671 219.835 992.638Z" fill="white"/>
<path fill-rule="evenodd" clip-rule="evenodd" d="M144.767 1042.63C145.743 1041.65 147.326 1041.65 148.302 1042.63L159.659 1053.99C160.636 1054.96 160.636 1056.55 159.659 1057.52C158.683 1058.5 157.1 1058.5 156.124 1057.52L144.767 1046.16C143.79 1045.19 143.79 1043.61 144.767 1042.63Z" fill="white"/>
<path fill-rule="evenodd" clip-rule="evenodd" d="M951.745 90.0733C935.915 90.0733 923.081 102.907 923.081 118.739C923.081 134.571 935.915 147.405 951.745 147.405C967.576 147.405 980.409 134.571 980.409 118.739C980.409 102.907 967.576 90.0733 951.745 90.0733ZM919.081 118.739C919.081 100.698 933.705 86.0733 951.745 86.0733C969.785 86.0733 984.409 100.698 984.409 118.739C984.409 136.78 969.785 151.405 951.745 151.405C933.705 151.405 919.081 136.78 919.081 118.739Z" fill="white"/>
<path d="M951.745 132.369C959.272 132.369 965.374 126.266 965.374 118.739C965.374 111.212 959.272 105.11 951.745 105.11C944.219 105.11 938.117 111.212 938.117 118.739C938.117 126.266 944.219 132.369 951.745 132.369Z" fill="white"/>
<path fill-rule="evenodd" clip-rule="evenodd" d="M951.745 110.017C946.929 110.017 943.024 113.922 943.024 118.739C943.024 123.556 946.929 127.461 951.745 127.461C956.562 127.461 960.467 123.556 960.467 118.739C960.467 113.922 956.562 110.017 951.745 110.017ZM940.024 118.739C940.024 112.265 945.272 107.017 951.745 107.017C958.219 107.017 963.467 112.265 963.467 118.739C963.467 125.213 958.219 130.461 951.745 130.461C945.272 130.461 940.024 125.213 940.024 118.739Z" fill="white"/>
<path d="M1066.92 718.056L1048.38 696.043L1038.57 723.006L1066.92 718.056ZM1075.47 721.168C1075.21 721.921 1074.74 722.589 1074.13 723.103C1073.52 723.617 1072.78 723.959 1071.99 724.094L1035.88 730.4C1035.09 730.539 1034.28 730.468 1033.53 730.195C1032.78 729.922 1032.12 729.456 1031.61 728.845C1031.09 728.233 1030.75 727.497 1030.61 726.711C1030.47 725.925 1030.55 725.117 1030.82 724.367L1043.31 690.02C1043.59 689.27 1044.05 688.604 1044.66 688.091C1045.27 687.577 1046.01 687.234 1046.79 687.095C1047.58 686.956 1048.39 687.026 1049.14 687.299C1049.89 687.572 1050.55 688.037 1051.07 688.648L1074.68 716.687C1075.2 717.296 1075.55 718.032 1075.68 718.82C1075.82 719.607 1075.75 720.418 1075.47 721.168Z" fill="white"/>
<path fill-rule="evenodd" clip-rule="evenodd" d="M754.446 229.862C755.626 231.025 755.641 232.924 754.479 234.105L727.138 261.874C725.975 263.055 724.076 263.07 722.895 261.907C721.715 260.745 721.7 258.846 722.862 257.665L750.203 229.895C751.365 228.715 753.265 228.7 754.446 229.862Z" fill="white"/>
</svg>
