<svg width="1149" height="1132" viewBox="0 0 1149 1132" fill="none" xmlns="http://www.w3.org/2000/svg">
<path fill-rule="evenodd" clip-rule="evenodd" d="M71.5783 310.914C62.9235 310.914 55.9071 317.93 55.9071 326.586C55.9071 335.242 62.9235 342.259 71.5783 342.259C80.2331 342.259 87.2495 335.242 87.2495 326.586C87.2495 317.93 80.2331 310.914 71.5783 310.914ZM50.9071 326.586C50.9071 315.169 60.1618 305.914 71.5783 305.914C82.9948 305.914 92.2495 315.169 92.2495 326.586C92.2495 338.003 82.9948 347.259 71.5783 347.259C60.1618 347.259 50.9071 338.003 50.9071 326.586Z" fill="#F01947"/>
<path fill-rule="evenodd" clip-rule="evenodd" d="M1097.9 50.8831C1099.07 52.0572 1099.07 53.9567 1097.9 55.1258L564.117 586.669C562.943 587.838 561.043 587.834 559.874 586.66C558.705 585.486 558.709 583.586 559.883 582.417L1093.66 50.8742C1094.84 49.7051 1096.74 49.7091 1097.9 50.8831Z" fill="#F01947"/>
<path fill-rule="evenodd" clip-rule="evenodd" d="M696.314 1037.81C694.063 1039 691.561 1039.63 689.017 1039.64L689.019 1039.65C688.056 1039.65 687.095 1039.57 686.146 1039.4L564.669 1018.03C561.92 1017.55 559.346 1016.35 557.207 1014.56C555.067 1012.76 553.438 1010.44 552.483 1007.81C551.527 1005.19 551.279 1002.36 551.764 999.613C552.249 996.863 553.448 994.289 555.243 992.151L567.654 977.347C606.525 976.841 645.091 970.402 682.019 958.252L703.84 1018.31C704.73 1020.7 705.023 1023.27 704.693 1025.8C704.363 1028.33 703.42 1030.74 701.946 1032.83C700.496 1034.92 698.564 1036.63 696.314 1037.81ZM343.975 971.092C341.5 972.579 338.666 973.363 335.778 973.358H335.787C334.858 973.358 333.931 973.277 333.016 973.115L253.585 959.097C250.28 958.52 247.245 956.905 244.92 954.486C242.579 952.075 241.067 948.981 240.604 945.652L229.37 865.725C228.896 862.4 229.493 859.011 231.076 856.049C232.646 853.079 235.122 850.687 238.144 849.22L265.174 836.032C279.938 854.17 296.32 870.929 314.118 886.101C331.677 901.059 350.545 914.408 370.494 925.985L349.824 964.917C348.473 967.469 346.451 969.604 343.975 971.092ZM624.144 888.818L561.269 963.756C529.817 963.693 498.501 959.623 468.078 951.644C440.538 944.398 413.935 933.971 388.806 920.574L399.709 900.06C402.647 894.559 403.756 888.266 402.875 882.092C402.02 875.915 399.219 870.171 394.88 865.693L338.849 807.637C336.068 804.747 332.724 802.458 329.023 800.911C325.406 799.391 321.521 798.61 317.598 798.615C313.11 798.606 308.68 799.63 304.651 801.606L269.065 818.97C253.119 798.162 239.431 775.717 228.232 752.014C217.152 728.535 208.595 703.947 202.704 678.663L279.209 671.971C283.074 671.643 286.836 670.552 290.277 668.761C293.717 666.97 296.769 664.514 299.254 661.536C301.756 658.571 303.645 655.139 304.811 651.439C305.978 647.739 306.399 643.845 306.05 639.981L293.785 499.681C293.146 492.296 289.747 485.424 284.265 480.436C278.838 475.469 271.749 472.714 264.393 472.713C263.532 472.713 262.657 472.751 261.796 472.826L212.173 477.17C219.16 456.357 227.996 436.211 238.576 416.974C249.731 396.713 262.756 377.541 277.483 359.708C293.353 368.543 311.219 373.171 329.382 373.153C343.661 373.182 357.799 370.328 370.948 364.762C383.628 359.406 395.148 351.639 404.87 341.894C414.619 332.17 422.387 320.645 427.745 307.959C433.311 294.809 436.166 280.67 436.138 266.39C436.142 260.279 435.626 254.179 434.595 248.156C453.778 241.093 473.516 235.643 493.604 231.862C516.224 227.627 539.187 225.498 562.2 225.502H562.811L554.128 280.353C552.912 288.087 554.813 295.988 559.414 302.322C564.016 308.656 570.942 312.907 578.672 314.14L625.784 321.602C627.321 321.846 628.874 321.969 630.431 321.97C637.411 321.962 644.162 319.481 649.488 314.969C654.884 310.398 658.46 304.041 659.566 297.056L668.447 241.019C686.628 246.48 704.358 253.34 721.48 261.538C722.851 262.196 724.217 262.861 725.58 263.535L730.582 258.426C728.537 257.399 726.483 256.39 724.419 255.4C704.634 245.925 684.055 238.208 662.919 232.337L674.868 156.888C675.343 153.941 675.229 150.93 674.532 148.029C673.835 145.127 672.57 142.392 670.809 139.983C669.062 137.563 666.853 135.514 664.308 133.954C661.764 132.395 658.935 131.355 655.986 130.897L608.875 123.432C607.691 123.244 606.494 123.149 605.296 123.148C599.927 123.156 594.734 125.064 590.638 128.536C586.488 132.053 583.737 136.942 582.886 142.316L570.775 218.783C567.92 218.719 565.035 218.688 562.2 218.688C538.761 218.683 515.373 220.852 492.334 225.166C469.956 229.377 448.009 235.623 426.766 243.825C428.468 251.226 429.326 258.796 429.323 266.39C429.35 279.754 426.679 292.986 421.471 305.293C416.454 317.169 409.18 327.959 400.052 337.063C390.948 346.191 380.16 353.466 368.284 358.483C355.977 363.692 342.746 366.364 329.382 366.338C310.478 366.36 291.957 361.002 275.984 350.892C296.124 327.265 319.096 306.207 344.382 288.195C369.884 270.03 397.558 255.128 426.759 243.836C424.242 232.918 419.894 222.505 413.898 213.04C408.006 203.714 400.613 195.425 392.02 188.508C383.376 181.533 373.626 176.054 363.173 172.298C352.333 168.408 340.899 166.427 329.382 166.442C316.019 166.416 302.788 169.087 290.482 174.295C278.606 179.311 267.817 186.586 258.714 195.715C249.586 204.819 242.312 215.609 237.295 227.485C232.086 239.793 229.415 253.025 229.44 266.39C229.436 275.07 230.558 283.713 232.779 292.104C234.939 300.209 238.115 308.008 242.233 315.315C250.384 329.769 261.982 341.985 275.995 350.874C259.45 370.287 244.915 391.327 232.611 413.671C220.17 436.293 210.102 460.142 202.567 484.836L262.396 479.612C263.062 479.553 263.736 479.523 264.399 479.523C270.056 479.523 275.508 481.641 279.681 485.459C283.898 489.296 286.512 494.582 287.002 500.262L299.268 640.562C299.537 643.535 299.213 646.53 298.317 649.377C297.42 652.223 295.967 654.863 294.043 657.145C292.132 659.436 289.784 661.325 287.137 662.703C284.49 664.081 281.596 664.92 278.623 665.172L194.37 672.544C188.988 646.922 186.278 620.81 186.284 594.629C186.256 557.431 191.745 520.435 202.572 484.847L122.108 491.889C119.135 492.142 116.243 492.983 113.597 494.361C110.952 495.74 108.606 497.63 106.696 499.922C104.77 502.202 103.315 504.841 102.416 507.688C101.517 510.534 101.191 513.531 101.458 516.504L113.724 656.804C114.213 662.484 116.827 667.77 121.042 671.608C125.216 675.425 130.668 677.542 136.324 677.541C136.994 677.541 137.676 677.514 138.332 677.446L194.37 672.544C200.368 700.987 209.664 728.634 222.07 754.924C234.274 780.75 249.376 805.104 267.085 827.516L267.082 827.518C267.082 827.518 267.083 827.519 267.083 827.519L235.16 843.096C230.843 845.192 227.307 848.609 225.063 852.85C222.803 857.082 221.949 861.925 222.626 866.675L233.856 946.599C234.515 951.351 236.67 955.769 240.009 959.213C243.335 962.671 247.676 964.978 252.402 965.801L331.824 979.825C333.129 980.056 334.452 980.172 335.778 980.173C339.901 980.177 343.947 979.056 347.48 976.932C351.013 974.807 353.9 971.759 355.83 968.116L379.627 923.323C406.96 938.543 436.094 950.272 466.347 958.237C497.637 966.442 529.853 970.588 562.2 970.571H564.451L550.023 987.76C547.46 990.815 545.746 994.491 545.053 998.419C544.361 1002.35 544.715 1006.39 546.08 1010.14C547.445 1013.88 549.772 1017.2 552.828 1019.77C555.884 1022.33 559.56 1024.04 563.488 1024.73L684.965 1046.1C686.303 1046.34 687.66 1046.46 689.019 1046.46C692.657 1046.44 696.237 1045.55 699.457 1043.86C702.677 1042.17 705.444 1039.73 707.522 1036.74C709.633 1033.77 710.985 1030.32 711.46 1026.7C711.935 1023.08 711.519 1019.4 710.248 1015.98L686.146 949.673C647.014 963.315 605.892 970.377 564.451 970.571L629.361 893.195C631.54 890.57 634.286 888.473 637.393 887.062C640.314 885.741 643.484 885.063 646.689 885.072C651.236 885.063 655.683 886.407 659.464 888.934C663.461 891.614 666.493 895.507 668.111 900.039L686.146 949.657C713.891 939.961 740.4 927.036 765.127 911.147C789.597 895.416 812.169 876.912 832.396 856.004C838.028 860.62 844.401 864.25 851.245 866.738C858.34 869.318 865.833 870.633 873.382 870.623C882.038 870.639 890.607 868.909 898.578 865.535C906.27 862.285 913.259 857.573 919.155 851.66C925.068 845.763 929.78 838.775 933.029 831.082C936.403 823.11 938.133 814.54 938.117 805.884C938.127 794.175 934.956 782.683 928.945 772.635C923.106 762.901 914.822 754.864 904.916 749.322C914.605 727.873 922.248 705.558 927.743 682.672C933.37 659.172 936.723 635.184 937.758 611.041L936.649 611.973C932.557 615.403 927.389 617.285 922.049 617.288C919.4 617.292 916.77 616.831 914.281 615.925L819.4 581.398C815.656 580.028 812.337 577.701 809.774 574.647C807.212 571.593 805.495 567.92 804.797 563.995L787.266 464.547C786.58 460.619 786.936 456.58 788.299 452.833C789.662 449.086 791.985 445.762 795.035 443.194L870.672 379.718C858.339 362.057 844.522 345.479 829.371 330.166C826.656 327.424 823.899 324.725 821.103 322.068L816.317 326.907C819.101 329.55 821.844 332.237 824.547 334.966C837.959 348.528 850.31 363.102 861.489 378.557L790.667 437.99C786.703 441.328 783.685 445.647 781.913 450.516C780.141 455.386 779.677 460.635 780.568 465.739L798.099 565.188C799.007 570.29 801.238 575.065 804.57 579.035C807.901 583.005 812.216 586.031 817.083 587.81L911.962 622.338C915.198 623.518 918.616 624.121 922.06 624.119C924.827 624.118 927.579 623.728 930.237 622.96C928.752 642.551 925.707 661.992 921.131 681.098C916.282 701.28 909.73 721.015 901.547 740.09C892.644 736.289 883.063 734.33 873.382 734.33C863.815 734.311 854.343 736.224 845.532 739.954C837.031 743.545 829.308 748.753 822.791 755.287C816.257 761.804 811.05 769.528 807.459 778.03C803.729 786.841 801.815 796.315 801.833 805.884C801.8 824.761 809.258 842.881 822.568 856.267C803.988 874.763 783.501 891.239 761.45 905.418C739.065 919.8 715.188 931.714 690.237 940.95L674.523 897.713C672.412 891.816 668.463 886.754 663.257 883.271C658.355 879.998 652.59 878.259 646.696 878.273C642.522 878.262 638.395 879.147 634.592 880.868C630.553 882.694 626.981 885.413 624.144 888.818ZM832.397 855.995C824.964 849.933 818.975 842.291 814.867 833.623C810.758 824.954 808.633 815.477 808.647 805.884C808.631 797.227 810.361 788.657 813.735 780.685C816.984 772.993 821.696 766.004 827.609 760.107C833.505 754.194 840.493 749.482 848.185 746.233C856.156 742.859 864.726 741.128 873.382 741.144C884.418 741.139 895.273 743.954 904.916 749.322C895.973 769.083 885.339 788.034 873.132 805.963C861.001 823.768 847.373 840.507 832.397 855.995ZM267.083 827.519C282.447 846.957 299.681 864.84 318.536 880.913C337.455 897.025 357.918 911.231 379.627 923.323L393.694 896.852C395.954 892.621 396.807 887.779 396.129 883.03C395.471 878.279 393.316 873.86 389.978 870.416L333.943 812.369C331.804 810.147 329.232 808.386 326.386 807.197C323.602 806.027 320.613 805.426 317.593 805.429C314.143 805.423 310.738 806.211 307.64 807.73L267.085 827.516C267.086 827.517 267.086 827.517 267.087 827.518L267.083 827.519ZM895.926 859.265C888.793 862.281 881.126 863.826 873.382 863.808C866.631 863.816 859.931 862.641 853.587 860.335C849.788 858.953 846.145 857.176 842.718 855.031C855.851 840.877 867.903 825.756 878.772 809.797C889.714 793.722 899.418 776.837 907.8 759.29C913.959 763.848 919.159 769.576 923.101 776.147C928.476 785.134 931.311 795.411 931.303 805.884C931.321 813.628 929.775 821.296 926.76 828.429C923.851 835.315 919.633 841.571 914.34 846.849C909.063 852.14 902.809 856.357 895.926 859.265ZM137.737 670.665C137.267 670.706 136.792 670.726 136.324 670.726C132.362 670.73 128.543 669.249 125.619 666.574C122.669 663.888 120.839 660.189 120.497 656.213L108.232 515.911C108.046 513.831 108.274 511.734 108.904 509.743C109.534 507.752 110.552 505.905 111.9 504.31C113.236 502.706 114.878 501.383 116.729 500.417C118.58 499.452 120.604 498.863 122.685 498.686L193.243 492.514C184.079 525.778 179.446 560.126 179.47 594.629C179.466 618.719 181.716 642.756 186.193 666.426L137.737 670.665ZM1009.63 541.859L944.931 596.149V594.629C944.967 555.047 938.862 515.699 926.832 477.99C915.883 443.744 900.141 411.221 880.073 381.39C882.233 380.345 884.6 379.801 886.999 379.8C888.854 379.799 890.694 380.123 892.437 380.758L987.315 415.286C989.936 416.244 992.259 417.874 994.053 420.012C995.846 422.149 997.048 424.721 997.537 427.468L1015.07 526.919C1015.55 529.667 1015.3 532.493 1014.34 535.115C1013.39 537.737 1011.76 540.062 1009.63 541.859ZM340.439 282.634C316.358 299.788 294.332 319.659 274.798 341.853C263.876 333.929 254.792 323.743 248.163 311.989C244.33 305.178 241.374 297.909 239.366 290.355C237.296 282.535 236.25 274.479 236.255 266.39C236.23 253.938 238.718 241.609 243.571 230.141C248.246 219.073 255.025 209.019 263.532 200.536C272.015 192.028 282.068 185.249 293.135 180.573C304.602 175.72 316.93 173.232 329.382 173.256C340.114 173.241 350.768 175.085 360.87 178.708C370.613 182.208 379.7 187.315 387.757 193.816C395.766 200.261 402.656 207.984 408.149 216.673C412.686 223.835 416.215 231.588 418.639 239.713C390.987 250.919 364.742 265.324 340.439 282.634ZM668.138 155.818L657.372 223.803C631.626 217.225 605.265 213.342 578.716 212.218L589.618 143.376C590.214 139.617 592.138 136.195 595.042 133.734C597.907 131.304 601.539 129.966 605.296 129.958C606.138 129.959 606.978 130.026 607.81 130.158L654.921 137.623C656.985 137.944 658.965 138.671 660.746 139.763C662.527 140.855 664.074 142.289 665.297 143.983C666.529 145.67 667.415 147.584 667.903 149.616C668.391 151.647 668.471 153.755 668.138 155.818ZM560.856 281.416L570.775 218.785C601.93 219.469 632.88 224.021 662.914 232.335L652.834 295.988C651.983 301.361 649.233 306.249 645.084 309.765C640.989 313.237 635.797 315.146 630.429 315.154C629.229 315.153 628.031 315.058 626.847 314.87L579.735 307.408C573.789 306.458 568.461 303.188 564.922 298.316C561.383 293.443 559.92 287.366 560.856 281.416ZM938.117 594.632C938.117 600.088 937.992 605.603 937.765 611.055L937.769 611.053L1014.01 547.074C1017.06 544.507 1019.38 541.183 1020.74 537.436C1022.11 533.689 1022.46 529.649 1021.77 525.722L1004.24 426.271C1003.55 422.346 1001.83 418.674 999.268 415.62C996.705 412.566 993.387 410.238 989.643 408.869L894.763 374.341C892.273 373.436 889.645 372.975 886.997 372.978C881.655 372.981 876.485 374.862 872.392 378.294L870.681 379.729C892.171 410.492 908.911 444.312 920.341 480.055C932.157 517.097 938.154 555.75 938.117 594.632Z" fill="#F01947"/>
<path d="M773.712 316.831L765.349 325.049L738.718 297.948L747.452 289.365C750.08 286.782 752.863 285.114 755.799 284.361C758.727 283.599 761.682 283.739 764.664 284.779C767.637 285.811 770.502 287.73 773.259 290.535C776.033 293.358 777.918 296.283 778.915 299.309C779.904 302.326 779.974 305.327 779.125 308.311C778.269 311.286 776.464 314.126 773.712 316.831ZM765.77 318.913L770.639 314.128C772.88 311.925 774.312 309.668 774.936 307.356C775.559 305.044 775.448 302.734 774.603 300.426C773.757 298.118 772.251 295.862 770.083 293.656C767.933 291.468 765.725 289.936 763.459 289.059C761.184 288.173 758.921 288.005 756.668 288.554C754.407 289.094 752.218 290.404 750.101 292.485L744.861 297.634L765.77 318.913Z" fill="#F01947"/>
<path d="M792.131 298.729L765.5 271.628L781.855 255.555L784.716 258.466L771.643 271.314L780.641 280.471L792.867 268.456L795.728 271.367L783.502 283.383L792.552 292.593L805.837 279.537L808.698 282.448L792.131 298.729Z" fill="#F01947"/>
<path d="M809.248 241.953C807.771 240.768 806.104 240.36 804.247 240.728C802.39 241.097 800.641 242.087 799 243.7C797.8 244.879 796.941 246.105 796.423 247.377C795.913 248.641 795.741 249.86 795.905 251.033C796.079 252.198 796.591 253.212 797.44 254.077C798.151 254.8 798.934 255.253 799.79 255.436C800.645 255.601 801.516 255.586 802.401 255.393C803.277 255.191 804.123 254.905 804.94 254.536C805.748 254.158 806.468 253.788 807.101 253.427L810.582 251.463C811.469 250.955 812.506 250.439 813.691 249.916C814.885 249.384 816.157 249.01 817.505 248.794C818.854 248.561 820.218 248.626 821.597 248.988C822.975 249.349 824.289 250.166 825.537 251.436C826.976 252.9 827.893 254.601 828.287 256.537C828.69 258.465 828.502 260.497 827.722 262.633C826.951 264.76 825.525 266.847 823.443 268.893C821.502 270.8 819.514 272.139 817.478 272.908C815.452 273.669 813.482 273.888 811.569 273.565C809.666 273.233 807.933 272.379 806.371 271L809.758 267.671C810.852 268.608 812.028 269.117 813.287 269.198C814.545 269.261 815.798 269.001 817.045 268.417C818.293 267.816 819.454 266.986 820.53 265.929C821.783 264.698 822.708 263.389 823.307 262.004C823.896 260.61 824.122 259.26 823.985 257.956C823.839 256.643 823.28 255.492 822.309 254.504C821.425 253.604 820.454 253.119 819.397 253.049C818.339 252.978 817.227 253.17 816.059 253.623C814.892 254.076 813.702 254.639 812.49 255.31L808.219 257.635C805.504 259.107 802.974 259.885 800.629 259.969C798.284 260.054 796.215 259.183 794.42 257.357C792.929 255.839 792.039 254.113 791.75 252.178C791.461 250.225 791.706 248.25 792.484 246.254C793.262 244.24 794.516 242.384 796.245 240.685C797.992 238.968 799.852 237.755 801.826 237.047C803.791 236.329 805.7 236.118 807.551 236.415C809.412 236.702 811.036 237.508 812.423 238.832L809.248 241.953Z" fill="#F01947"/>
<path d="M814.813 223.165L841.444 250.266L838.162 253.491L811.532 226.39L814.813 223.165Z" fill="#F01947"/>
<path d="M848.24 206.962C847.073 206.357 845.905 205.936 844.735 205.698C843.566 205.443 842.407 205.385 841.26 205.523C840.122 205.654 839.013 205.989 837.933 206.531C836.852 207.072 835.822 207.824 834.843 208.787C833.238 210.365 832.185 212.214 831.686 214.335C831.186 216.456 831.341 218.705 832.151 221.083C832.961 223.46 834.519 225.822 836.825 228.169C839.131 230.515 841.47 232.11 843.841 232.953C846.213 233.796 848.477 233.973 850.632 233.484C852.788 232.996 854.704 231.928 856.38 230.281C857.933 228.755 858.975 227.08 859.507 225.257C860.039 223.416 860.038 221.562 859.503 219.694C858.968 217.809 857.886 216.037 856.256 214.379L857.47 213.602L849.319 221.613L846.458 218.702L856.779 208.558L859.64 211.47C861.833 213.702 863.264 216.111 863.933 218.697C864.61 221.274 864.561 223.836 863.787 226.383C863.013 228.913 861.549 231.236 859.397 233.351C856.997 235.709 854.334 237.216 851.407 237.873C848.489 238.521 845.5 238.303 842.44 237.218C839.388 236.124 836.458 234.148 833.65 231.289C831.543 229.146 829.936 226.936 828.827 224.661C827.719 222.369 827.101 220.098 826.971 217.849C826.842 215.6 827.185 213.443 827.999 211.377C828.813 209.311 830.088 207.425 831.826 205.717C833.255 204.312 834.8 203.219 836.46 202.438C838.12 201.639 839.82 201.155 841.562 200.987C843.304 200.801 845.035 200.93 846.754 201.373C848.464 201.808 850.089 202.561 851.627 203.633L848.24 206.962Z" fill="#F01947"/>
<path d="M870.574 168.366L897.204 195.467L894.028 198.588L858.352 191.822L858.088 192.082L878.997 213.36L875.715 216.586L849.085 189.484L852.26 186.363L888.041 193.13L888.306 192.87L867.345 171.539L870.574 168.366Z" fill="#F01947"/>
<path d="M638.524 396.719L644.253 391.088L661.548 408.688C663.49 410.664 664.717 412.857 665.229 415.267C665.75 417.668 665.576 420.111 664.706 422.596C663.827 425.073 662.268 427.412 660.027 429.614C657.778 431.825 655.407 433.348 652.916 434.183C650.416 435.01 647.971 435.141 645.579 434.578C643.188 434.015 641.021 432.745 639.079 430.769L621.785 413.169L627.515 407.539L644.328 424.649C645.342 425.681 646.469 426.377 647.707 426.738C648.955 427.09 650.219 427.088 651.499 426.732C652.779 426.376 653.97 425.656 655.073 424.572C656.184 423.48 656.925 422.301 657.294 421.036C657.673 419.762 657.693 418.503 657.354 417.258C657.024 416.005 656.351 414.862 655.337 413.829L638.524 396.719Z" fill="#F01947"/>
<path d="M654.697 380.825L681.327 407.926L675.598 413.557L648.967 386.456L654.697 380.825Z" fill="#F01947"/>
<path d="M669.86 363.426L693.01 404.456L688.154 409.229L665.004 368.199L669.86 363.426Z" fill="#F01947"/>
<path d="M690.669 345.473L696.398 339.843L713.692 357.442C715.634 359.419 716.861 361.612 717.374 364.021C717.895 366.422 717.721 368.865 716.851 371.351C715.972 373.827 714.412 376.166 712.172 378.368C709.922 380.579 707.552 382.102 705.061 382.937C702.561 383.764 700.115 383.895 697.724 383.332C695.333 382.769 693.166 381.5 691.224 379.523L673.93 361.923L679.659 356.293L696.473 373.403C697.487 374.435 698.613 375.132 699.852 375.492C701.1 375.844 702.363 375.842 703.643 375.486C704.923 375.13 706.115 374.41 707.217 373.326C708.329 372.234 709.069 371.055 709.439 369.79C709.818 368.517 709.837 367.257 709.498 366.012C709.168 364.759 708.496 363.616 707.482 362.584L690.669 345.473Z" fill="#F01947"/>
<path d="M706.484 329.93L721.025 333.796L721.237 333.588L717.652 318.955L724.123 312.596L729.168 334.274L750.939 339.515L744.349 345.991L729.702 342.203L729.49 342.411L733.022 357.122L726.459 363.573L721.626 341.686L699.987 336.315L706.484 329.93Z" fill="#F01947"/>
<path d="M331.653 316.364C357.997 316.364 379.353 295.007 379.353 268.662C379.353 242.316 357.997 220.959 331.653 220.959C305.31 220.959 283.954 242.316 283.954 268.662C283.954 295.007 305.31 316.364 331.653 316.364Z" fill="#F01947"/>
<path fill-rule="evenodd" clip-rule="evenodd" d="M157.891 1021.91C142.964 1021.91 130.863 1034.01 130.863 1048.94C130.863 1063.87 142.964 1075.97 157.891 1075.97C172.819 1075.97 184.92 1063.87 184.92 1048.94C184.92 1034.01 172.819 1021.91 157.891 1021.91ZM125.863 1048.94C125.863 1031.25 140.203 1016.91 157.891 1016.91C175.58 1016.91 189.92 1031.25 189.92 1048.94C189.92 1066.63 175.58 1080.97 157.891 1080.97C140.203 1080.97 125.863 1066.63 125.863 1048.94Z" fill="#F01947"/>
<path fill-rule="evenodd" clip-rule="evenodd" d="M219.835 992.638C220.82 993.605 220.835 995.188 219.868 996.174L159.676 1057.51C158.709 1058.49 157.126 1058.51 156.14 1057.54C155.155 1056.57 155.14 1054.99 156.107 1054L216.299 992.671C217.266 991.686 218.849 991.671 219.835 992.638Z" fill="#F01947"/>
<path fill-rule="evenodd" clip-rule="evenodd" d="M144.767 1042.63C145.743 1041.65 147.326 1041.65 148.302 1042.63L159.659 1053.99C160.636 1054.96 160.635 1056.55 159.659 1057.52C158.683 1058.5 157.1 1058.5 156.124 1057.52L144.767 1046.16C143.79 1045.19 143.79 1043.61 144.767 1042.63Z" fill="#F01947"/>
<path fill-rule="evenodd" clip-rule="evenodd" d="M951.745 90.0733C935.915 90.0733 923.081 102.907 923.081 118.739C923.081 134.571 935.915 147.405 951.745 147.405C967.576 147.405 980.409 134.571 980.409 118.739C980.409 102.907 967.576 90.0733 951.745 90.0733ZM919.081 118.739C919.081 100.698 933.705 86.0733 951.745 86.0733C969.785 86.0733 984.409 100.698 984.409 118.739C984.409 136.78 969.785 151.405 951.745 151.405C933.705 151.405 919.081 136.78 919.081 118.739Z" fill="#F01947"/>
<path d="M951.745 132.369C959.272 132.369 965.374 126.266 965.374 118.739C965.374 111.212 959.272 105.11 951.745 105.11C944.219 105.11 938.117 111.212 938.117 118.739C938.117 126.266 944.219 132.369 951.745 132.369Z" fill="#F01947"/>
<path fill-rule="evenodd" clip-rule="evenodd" d="M951.745 110.017C946.929 110.017 943.024 113.922 943.024 118.739C943.024 123.556 946.929 127.461 951.745 127.461C956.562 127.461 960.467 123.556 960.467 118.739C960.467 113.922 956.562 110.017 951.745 110.017ZM940.024 118.739C940.024 112.265 945.272 107.017 951.745 107.017C958.219 107.017 963.467 112.265 963.467 118.739C963.467 125.213 958.219 130.461 951.745 130.461C945.272 130.461 940.024 125.213 940.024 118.739Z" fill="#F01947"/>
<path d="M1066.92 718.056L1048.38 696.043L1038.57 723.006L1066.92 718.056ZM1075.47 721.168C1075.21 721.921 1074.74 722.589 1074.13 723.103C1073.52 723.617 1072.78 723.959 1071.99 724.094L1035.88 730.4C1035.09 730.539 1034.28 730.468 1033.53 730.195C1032.78 729.922 1032.12 729.456 1031.61 728.845C1031.09 728.233 1030.75 727.497 1030.61 726.711C1030.47 725.925 1030.55 725.117 1030.82 724.367L1043.31 690.02C1043.59 689.27 1044.05 688.604 1044.66 688.091C1045.27 687.577 1046.01 687.234 1046.79 687.095C1047.58 686.956 1048.39 687.026 1049.14 687.299C1049.89 687.572 1050.55 688.037 1051.07 688.648L1074.68 716.687C1075.2 717.296 1075.54 718.032 1075.68 718.82C1075.82 719.607 1075.75 720.418 1075.47 721.168Z" fill="#F01947"/>
<path fill-rule="evenodd" clip-rule="evenodd" d="M754.446 229.862C755.626 231.025 755.641 232.924 754.479 234.105L727.138 261.874C725.975 263.055 724.076 263.07 722.895 261.907C721.715 260.745 721.7 258.846 722.862 257.665L750.203 229.895C751.365 228.715 753.265 228.7 754.446 229.862Z" fill="#F01947"/>
</svg>
