<svg width="400" height="180" viewBox="0 0 400 180" fill="none" xmlns="http://www.w3.org/2000/svg">
<path d="M51.5661 74.3504C52.5005 73.9451 53.4913 51.6414 53.4913 51.6414L52.7708 50.8871L14.8961 48.8717L15.5266 42.6006C15.5266 42.6006 45.9254 42.8258 46.95 42.6006C47.9407 42.4204 46.7698 8.70032 45.9254 8.53144C43.6399 8.08109 6.6547 10.5017 5.85532 11.121C5.76525 11.166 4.59434 12.776 4.59434 12.776C2.48894 15.5569 1.91474 52.8573 2.39887 52.8573C2.39887 52.8573 8.98527 54.8276 26.1324 55.672C25.7721 58.453 25.1529 62.2584 25.1529 62.2584C24.1171 62.2584 5.26987 59.6577 5.26987 59.6577C5.13476 59.7477 4.23406 61.3127 4.23406 61.3127C4.23406 61.3127 4.27909 72.0649 4.99965 73.4497L51.5661 74.3504Z" fill="white"/>
<path d="M111.172 25.5884C113.457 18.5517 111.397 8.44125 111.397 8.44125L108.582 8.26111L70.1672 9.24062C70.1672 9.24062 68.5009 12.8209 68.332 15.6919C68.1519 18.5517 67.8817 64.0485 69.897 69.4189C70.8765 72.0647 71.7772 74.7894 72.7567 75.0146C73.7475 75.2397 85.1189 76.1404 99.7103 76.0053C114.313 75.8702 111.082 76.2305 111.082 76.2305L110.643 63.5081C110.643 63.5081 108.537 62.1232 108.627 62.2133C108.717 62.3034 109.877 62.3934 109.877 62.3934L88.0237 62.2133L86.909 60.9973L87.2243 49.671C101.816 49.5359 109.292 49.0067 109.292 49.0067V43.4561C109.292 43.4561 108.537 38.9301 108.627 39.0202C108.717 39.1102 103.167 39.2003 103.167 39.2003L91.5702 39.2453C89.5999 33.6947 90.1291 26.8832 90.1291 26.8832C108.222 25.9937 111.172 25.5884 111.172 25.5884Z" fill="white"/>
<path d="M175.177 75.7352L176.246 69.0587C176.246 65.0281 175.987 53.2964 175.672 49.1419C169.356 48.4213 157.399 47.1716 145.487 47.0815C145.802 31.2291 146.073 9.3758 145.802 9.33077C138.642 7.67572 134.026 8.08104 134.026 8.08104L131.785 8.74531C131.785 8.74531 130.625 54.6024 132.1 73.855L133.62 75.9153L174.141 76.7597L175.177 75.7352Z" fill="white"/>
<path d="M204.613 74.4403L203.273 51.5062L204.028 49.671C218.63 49.5359 228.786 49.0067 228.786 49.0067V43.4561C228.786 43.4561 228.031 38.9301 228.121 39.0202C228.211 39.1102 222.661 39.2003 222.661 39.2003L211.064 39.2453C209.094 33.6947 209.623 26.8832 209.623 26.8832C227.716 25.9937 230.666 25.5884 230.666 25.5884C232.951 18.5517 230.891 8.44125 230.891 8.44125L228.076 8.26111L189.661 9.24062C189.661 9.24062 187.995 12.8209 187.826 15.6919C187.646 18.5517 189.965 75.4649 189.965 75.4649L203.318 75.5099L204.613 74.4403Z" fill="white"/>
<path d="M246.583 55.2216C243.757 59.6576 245.289 74.8795 245.289 74.8795C247.653 75.555 264.586 77.0299 270.936 74.8344C270.936 74.8344 272.591 64.679 271.702 58.9933C270.497 58.9032 265.701 58.678 264.541 58.5429C264.8 49.1418 265.16 35.6651 265.296 27.7839C266.557 27.6488 272.377 27.4236 273.492 27.3786C274.381 21.6929 272.726 7.49553 272.726 7.49553C266.376 5.30007 247.653 6.77497 245.289 7.4505C245.289 7.4505 245.638 29.0336 246.583 29.7992L247.383 30.4185L253.339 30.5986C253.114 38.75 253.294 55.2666 253.294 55.2666L246.583 55.2216Z" fill="white"/>
<path d="M337.274 74.3504C338.209 73.9451 339.199 51.6414 339.199 51.6414L338.479 50.8871L300.604 48.8717L301.235 42.6006C301.235 42.6006 331.633 42.8258 332.658 42.6006C333.649 42.4204 332.478 8.70032 331.633 8.53144C329.348 8.08109 292.363 10.5017 291.563 11.121C291.473 11.166 290.302 12.776 290.302 12.776C288.197 15.5569 287.623 52.8573 288.107 52.8573C288.107 52.8573 294.693 54.8276 311.84 55.672C311.48 58.453 310.861 62.2584 310.861 62.2584C309.825 62.2584 290.978 59.6577 290.978 59.6577C290.843 59.7477 289.942 61.3127 289.942 61.3127C289.942 61.3127 289.987 72.0649 290.708 73.4497L337.274 74.3504Z" fill="white"/>
<path d="M353.771 11.7065C353.771 11.7065 354.57 72.9994 354.705 73.0895C354.75 73.1345 356.765 73.9452 356.9 73.9902C357.036 74.0352 369.623 74.5644 369.623 74.5644C369.488 74.5644 370.602 49.8964 370.602 49.8964C370.602 49.8964 379.114 49.6712 379.114 49.8063C379.114 49.9414 380.004 73.4047 380.004 74.1253C380.004 74.8346 398.502 75.4651 398.502 75.4651L397.556 9.42097C391.51 6.06584 377.009 8.08117 377.009 8.08117L376.378 27.5139L376.153 34.5844L367.067 34.8996C367.067 34.8996 366.302 34.044 366.302 33.83L366.572 10.7608C361.787 9.87132 353.771 11.7065 353.771 11.7065Z" fill="white"/>
<path d="M26.7931 124.036C26.7931 124.036 27.8954 131.43 26.8391 136C26.8391 136 18.1241 136.999 16.7922 136.861C15.4718 136.999 12.7735 136.459 12.7735 136.459C12.7735 136.459 12.2338 133.21 12.3142 131.981C12.1879 130.753 12.7735 124.265 12.7735 124.265L26.7931 124.036ZM15.0584 147.275C21.6836 147.827 25.886 149.147 45.3367 147.689C46.152 137.366 47.8054 116.044 46.152 103.575C46.152 103.575 29.5833 100.245 14.8747 102.024C13.1409 102.254 5.65457 103.758 3.92077 104.401L1.49805 106.778C1.49805 106.778 2.40513 136.092 3.18592 170.205L13.095 170.883L15.0584 169.93V147.275Z" fill="white"/>
<path d="M100.919 146.037C105.948 137.277 107.958 115.954 106.304 103.577C106.304 103.577 87.4507 101.154 72.7421 102.934C71.0083 103.163 65.8069 103.76 64.0731 104.392L61.6504 106.769C61.6504 106.769 62.5575 137.001 63.3383 171.114L73.2473 171.792L75.2108 170.839V148.185C78.4487 148.46 81.1011 148.919 85.1658 149.149L99.7825 172.756C99.7366 172.802 101.241 172.894 101.333 172.986L101.562 172.848L106.901 169.782C110.093 167.187 111.885 164.811 114.985 161.883C112.057 157.324 100.919 146.037 100.919 146.037ZM86.9455 124.945C86.9455 124.945 88.0478 132.339 86.9914 136.909C86.9914 136.909 78.2765 137.908 76.9446 137.77C75.6241 137.908 72.9258 137.368 72.9258 137.368C72.9258 137.368 72.3862 134.119 72.4665 132.89C72.3402 131.662 72.9258 125.174 72.9258 125.174L86.9455 124.945Z" fill="white"/>
<path d="M125.23 151.606C122.348 156.13 123.909 171.654 123.909 171.654C126.32 172.343 143.59 173.847 150.065 171.608C150.065 171.608 151.753 161.251 150.846 155.452C149.618 155.361 144.726 155.131 143.544 154.993C143.808 145.406 144.175 131.662 144.313 123.624C145.599 123.486 151.535 123.257 152.672 123.211C153.579 117.412 151.891 102.933 151.891 102.933C145.415 100.694 126.32 102.198 123.909 102.887C123.909 102.887 124.265 124.899 125.23 125.679L126.045 126.311L132.119 126.495C131.889 134.808 132.073 151.652 132.073 151.652L125.23 151.606Z" fill="white"/>
<path d="M199.451 118.503L189.266 104.713C183.789 101.751 173.283 103.071 173.283 103.071L171.01 103.76C171.01 103.76 169.815 150.975 171.32 170.609L172.881 172.71L187.624 173.663L189.082 173.215C189.082 173.215 189.358 163.433 189.312 162.48C189.312 161.469 188.818 144.809 188.818 144.809L198.039 157.542L208.131 150.01L208.499 173.617L221.049 172.756C221.049 172.756 222.874 107.687 222.289 107.549C214.975 105.861 208.901 106.263 208.901 106.263L206.627 106.952L199.451 118.503Z" fill="white"/>
<path d="M239.468 104.759C237.32 126.265 235.357 145.624 234.22 169.013L235.77 170.747L257.736 171.838L258.413 157.772L266.68 158.323C268.414 170.333 268.058 168.232 268.873 171.206C272.662 171.332 278.645 171.114 281.94 171.114C279.747 148.184 276.451 127.505 273.811 104.667C269.378 104.254 250.835 101.98 239.468 104.759ZM255.818 146.083L255.588 132.707C255.588 132.707 255.267 131.294 266.186 132.064L267.094 146.726L255.818 146.083Z" fill="white"/>
<path d="M291.954 143.488C293.045 143.396 302.001 143.167 307.202 142.937C307.248 153.397 307.432 161.883 307.983 168.783L309.533 170.885L320.717 171.838C320.717 171.838 321.13 158.002 321.498 142.202C330.488 141.743 334.507 141.295 339.031 141.02C339.949 135.221 338.572 109.007 338.262 104.759C330.316 103.852 299.486 101.429 291.541 102.428C291.541 102.428 288.578 127.999 291.954 143.488Z" fill="white"/>
<path d="M397.403 121.385C399.734 114.209 397.633 103.898 397.633 103.898L394.762 103.714L355.585 104.713C355.585 104.713 353.886 108.364 353.714 111.292C353.53 114.209 353.254 160.608 355.31 166.085C356.309 168.783 357.227 171.562 358.226 171.792C359.237 172.021 370.833 172.94 385.714 172.802C400.607 172.664 397.311 173.032 397.311 173.032L396.863 160.057C396.863 160.057 394.716 158.645 394.808 158.736C394.9 158.828 396.083 158.92 396.083 158.92L373.796 158.736L372.659 157.496L372.981 145.945C387.861 145.808 395.486 145.268 395.486 145.268V139.607C395.486 139.607 394.716 134.991 394.808 135.083C394.9 135.175 389.239 135.267 389.239 135.267L377.413 135.313C375.403 129.652 375.943 122.706 375.943 122.706C394.395 121.799 397.403 121.385 397.403 121.385Z" fill="white"/>
</svg>
