<svg width="820" height="86" viewBox="0 0 820 86" fill="none" xmlns="http://www.w3.org/2000/svg">
<path d="M51.328 74.014C52.2625 73.6087 53.2533 51.305 53.2533 51.305L52.5327 50.5506L14.6581 48.5353L15.2886 42.2642C15.2886 42.2642 45.6874 42.4893 46.7119 42.2642C47.7027 42.084 46.5318 8.36389 45.6874 8.19501C43.4018 7.74466 6.41666 10.1653 5.61729 10.7845C5.52722 10.8296 4.3563 12.4396 4.3563 12.4396C2.2509 15.2205 1.67671 52.5209 2.16083 52.5209C2.16083 52.5209 8.74723 54.4912 25.8944 55.3356C25.5341 58.1165 24.9149 61.922 24.9149 61.922C23.8791 61.922 5.03183 59.3212 5.03183 59.3212C4.89672 59.4113 3.99602 60.9763 3.99602 60.9763C3.99602 60.9763 4.04105 71.7284 4.76162 73.1133L51.328 74.014Z" fill="#1A1A1A"/>
<path d="M110.934 25.252C113.219 18.2152 111.159 8.10482 111.159 8.10482L108.344 7.92468L69.9292 8.9042C69.9292 8.9042 68.2629 12.4845 68.094 15.3555C67.9138 18.2152 67.6436 63.7121 69.659 69.0825C70.6385 71.7283 71.5392 74.453 72.5187 74.6781C73.5095 74.9033 84.8809 75.804 99.4723 75.6689C114.075 75.5338 110.844 75.8941 110.844 75.8941L110.405 63.1716C110.405 63.1716 108.299 61.7868 108.389 61.8769C108.479 61.9669 109.639 62.057 109.639 62.057L87.7856 61.8769L86.671 60.6609L86.9863 49.3346C101.578 49.1995 109.054 48.6703 109.054 48.6703V43.1197C109.054 43.1197 108.299 38.5937 108.389 38.6837C108.479 38.7738 102.929 38.8639 102.929 38.8639L91.3322 38.9089C89.3619 33.3583 89.891 26.5467 89.891 26.5467C107.984 25.6573 110.934 25.252 110.934 25.252Z" fill="#1A1A1A"/>
<path d="M174.939 75.3988L176.008 68.7223C176.008 64.6916 175.749 52.96 175.434 48.8055C169.118 48.0849 157.161 46.8352 145.249 46.7451C145.564 30.8927 145.835 9.03938 145.564 8.99434C138.404 7.3393 133.788 7.74462 133.788 7.74462L131.547 8.40888C131.547 8.40888 130.387 54.266 131.862 73.5185L133.382 75.5789L173.903 76.4233L174.939 75.3988Z" fill="#1A1A1A"/>
<path d="M204.375 74.1039L203.035 51.1697L203.79 49.3346C218.392 49.1995 228.548 48.6703 228.548 48.6703V43.1197C228.548 43.1197 227.793 38.5937 227.883 38.6837C227.973 38.7738 222.423 38.8639 222.423 38.8639L210.826 38.9089C208.856 33.3583 209.385 26.5467 209.385 26.5467C227.478 25.6573 230.428 25.252 230.428 25.252C232.713 18.2152 230.653 8.10482 230.653 8.10482L227.838 7.92468L189.423 8.9042C189.423 8.9042 187.757 12.4845 187.588 15.3555C187.408 18.2152 189.727 75.1285 189.727 75.1285L203.08 75.1735L204.375 74.1039Z" fill="#1A1A1A"/>
<path d="M246.345 54.8852C243.519 59.3211 245.051 74.543 245.051 74.543C247.415 75.2186 264.348 76.6935 270.698 74.498C270.698 74.498 272.353 64.3426 271.464 58.6569C270.259 58.5668 265.463 58.3416 264.303 58.2065C264.562 48.8054 264.922 35.3286 265.058 27.4475C266.319 27.3124 272.139 27.0872 273.254 27.0422C274.143 21.3565 272.488 7.15911 272.488 7.15911C266.138 4.96364 247.415 6.43854 245.051 7.11407C245.051 7.11407 245.4 28.6972 246.345 29.4628L247.145 30.082L253.101 30.2622C252.876 38.4135 253.056 54.9302 253.056 54.9302L246.345 54.8852Z" fill="#1A1A1A"/>
<path d="M337.036 74.014C337.971 73.6087 338.961 51.305 338.961 51.305L338.241 50.5506L300.366 48.5353L300.997 42.2642C300.997 42.2642 331.395 42.4893 332.42 42.2642C333.411 42.084 332.24 8.36389 331.395 8.19501C329.11 7.74466 292.125 10.1653 291.325 10.7845C291.235 10.8296 290.064 12.4396 290.064 12.4396C287.959 15.2205 287.385 52.5209 287.869 52.5209C287.869 52.5209 294.455 54.4912 311.602 55.3356C311.242 58.1165 310.623 61.922 310.623 61.922C309.587 61.922 290.74 59.3212 290.74 59.3212C290.605 59.4113 289.704 60.9763 289.704 60.9763C289.704 60.9763 289.749 71.7284 290.47 73.1133L337.036 74.014Z" fill="#1A1A1A"/>
<path d="M353.532 11.3701C353.532 11.3701 354.332 72.663 354.467 72.7531C354.512 72.7981 356.527 73.6087 356.662 73.6538C356.798 73.6988 369.385 74.228 369.385 74.228C369.25 74.228 370.364 49.5599 370.364 49.5599C370.364 49.5599 378.876 49.3348 378.876 49.4699C378.876 49.605 379.765 73.0683 379.765 73.7889C379.765 74.4982 398.264 75.1287 398.264 75.1287L397.318 9.08454C391.272 5.72942 376.771 7.74474 376.771 7.74474L376.14 27.1774L375.915 34.248L366.829 34.5632C366.829 34.5632 366.064 33.7075 366.064 33.4936L366.334 10.4243C361.549 9.53489 353.532 11.3701 353.532 11.3701Z" fill="#1A1A1A"/>
<path d="M443.057 30.1981C443.057 30.1981 444.159 37.5925 443.103 42.1624C443.103 42.1624 434.388 43.1614 433.056 43.0236C431.736 43.1614 429.037 42.6217 429.037 42.6217C429.037 42.6217 428.498 39.3723 428.578 38.1437C428.452 36.9151 429.037 30.4277 429.037 30.4277L443.057 30.1981ZM431.322 53.4378C437.948 53.989 442.15 55.3094 461.601 53.8512C462.416 43.5288 464.069 22.2065 462.416 9.73694C462.416 9.73694 445.847 6.40713 431.139 8.18685C429.405 8.4165 421.918 9.92065 420.185 10.5636L417.762 12.9404C417.762 12.9404 418.669 42.2543 419.45 76.3676L429.359 77.0451L431.322 76.092V53.4378Z" fill="#1A1A1A"/>
<path d="M517.183 52.1998C522.212 43.4389 524.222 22.1166 522.568 9.73891C522.568 9.73891 503.715 7.31619 489.006 9.09591C487.272 9.32556 482.071 9.92263 480.337 10.5541L477.914 12.9309C477.914 12.9309 478.821 43.1633 479.602 77.2767L489.511 77.9541L491.475 77.0011V54.3469C494.713 54.6225 497.365 55.0818 501.43 55.3114L516.046 78.9186C516 78.9645 517.505 79.0564 517.596 79.1483L517.826 79.0105L523.165 75.9448C526.357 73.3498 528.149 70.973 531.249 68.0451C528.321 63.4867 517.183 52.1998 517.183 52.1998ZM503.209 31.1071C503.209 31.1071 504.312 38.5016 503.255 43.0715C503.255 43.0715 494.54 44.0704 493.208 43.9326C491.888 44.0704 489.19 43.5308 489.19 43.5308C489.19 43.5308 488.65 40.2813 488.73 39.0527C488.604 37.8241 489.19 31.3368 489.19 31.3368L503.209 31.1071Z" fill="#1A1A1A"/>
<path d="M541.494 57.7683C538.612 62.2923 540.173 77.8161 540.173 77.8161C542.584 78.505 559.853 80.0092 566.329 77.7702C566.329 77.7702 568.017 67.4133 567.11 61.6148C565.882 61.523 560.99 61.2933 559.808 61.1556C560.072 51.568 560.439 37.8239 560.577 29.7864C561.863 29.6486 567.799 29.419 568.936 29.3731C569.843 23.5746 568.155 9.09567 568.155 9.09567C561.679 6.85666 542.584 8.36082 540.173 9.04974C540.173 9.04974 540.529 31.0609 541.494 31.8417L542.309 32.4732L548.383 32.657C548.153 40.97 548.337 57.8143 548.337 57.8143L541.494 57.7683Z" fill="#1A1A1A"/>
<path d="M615.715 24.6656L605.53 10.8756C600.053 7.91318 589.547 9.23362 589.547 9.23362L587.274 9.92255C587.274 9.92255 586.08 57.137 587.584 76.7714L589.145 78.8726L603.888 79.8256L605.347 79.3778C605.347 79.3778 605.622 69.5951 605.576 68.6421C605.576 67.6316 605.083 50.9711 605.083 50.9711L614.303 63.7048L624.395 56.1725L624.763 79.7797L637.313 78.9185C637.313 78.9185 639.138 13.8494 638.553 13.7116C631.239 12.0238 625.165 12.4257 625.165 12.4257L622.891 13.1146L615.715 24.6656Z" fill="#1A1A1A"/>
<path d="M655.732 10.9215C653.585 32.4275 651.621 51.7863 650.484 75.1754L652.034 76.9092L674 78L674.677 63.9344L682.944 64.4855C684.678 76.4958 684.322 74.3946 685.137 77.3685C688.926 77.4948 694.909 77.2766 698.204 77.2766C696.011 54.3468 692.716 33.6675 690.075 10.8296C685.643 10.4163 667.099 8.14282 655.732 10.9215ZM672.082 52.2456L671.853 38.8689C671.853 38.8689 671.531 37.4566 682.451 38.2259L683.358 52.8886L672.082 52.2456Z" fill="#1A1A1A"/>
<path d="M708.218 49.6506C709.309 49.5588 718.265 49.3291 723.466 49.0995C723.512 59.5597 723.696 68.045 724.247 74.9457L725.797 77.0469L736.981 78C736.981 78 737.394 64.164 737.762 48.3646C746.752 47.9053 750.771 47.4575 755.295 47.182C756.213 41.3835 754.835 15.1698 754.525 10.9215C746.58 10.0144 715.75 7.59165 707.805 8.59059C707.805 8.59059 704.842 34.1613 708.218 49.6506Z" fill="#1A1A1A"/>
<path d="M813.667 27.5476C815.998 20.3712 813.897 10.0603 813.897 10.0603L811.026 9.87659L771.849 10.8755C771.849 10.8755 770.15 14.5268 769.978 17.4548C769.794 20.3712 769.518 66.7704 771.574 72.2474C772.573 74.9457 773.491 77.7244 774.49 77.954C775.501 78.1836 787.098 79.1022 801.978 78.9644C816.871 78.8266 813.575 79.1941 813.575 79.1941L813.128 66.2193C813.128 66.2193 810.98 64.807 811.072 64.8989C811.164 64.9907 812.347 65.0826 812.347 65.0826L790.06 64.8989L788.923 63.6588L789.245 52.1078C804.126 51.97 811.75 51.4303 811.75 51.4303V45.7697C811.75 45.7697 810.98 41.1539 811.072 41.2457C811.164 41.3376 805.503 41.4294 805.503 41.4294L793.677 41.4753C791.667 35.8147 792.207 28.868 792.207 28.868C810.659 27.9609 813.667 27.5476 813.667 27.5476Z" fill="#1A1A1A"/>
</svg>
